<?xml version="1.0" encoding="UTF-8" standalone="no"?>
<!-- Created with Inkscape (http://www.inkscape.org/) -->

<svg
   xmlns:dc="http://purl.org/dc/elements/1.1/"
   xmlns:cc="http://creativecommons.org/ns#"
   xmlns:rdf="http://www.w3.org/1999/02/22-rdf-syntax-ns#"
   xmlns:svg="http://www.w3.org/2000/svg"
   xmlns="http://www.w3.org/2000/svg"
   xmlns:sodipodi="http://sodipodi.sourceforge.net/DTD/sodipodi-0.dtd"
   xmlns:inkscape="http://www.inkscape.org/namespaces/inkscape"
   width="201.96851"
   height="201.96851"
   id="svg2"
   version="1.1"
   inkscape:version="0.48.1 "
   sodipodi:docname="icon.svg"
   inkscape:export-filename="C:\work\desktop\スプラッシュ\icon.png"
   inkscape:export-xdpi="25.4"
   inkscape:export-ydpi="25.4">
  <defs
     id="defs4">
    <clipPath
       clipPathUnits="userSpaceOnUse"
       id="clipPath3816">
      <path
         sodipodi:nodetypes="czczcsczczcsscc"
         inkscape:connector-curvature="0"
         id="path3818"
         d="m 10.627908,-6.0260782 c -18.4428565,4.837806 -24.070591,21.5989402 -20.0536895,34.4914302 4.016899,12.89249 20.1974655,21.916333 30.2570135,14.094744 -9.960467,10.068384 -13.948077,30.174 -1.978132,41.55897 11.969945,11.38496 29.056348,14.78004 41.937786,-4.99524 -9.739536,20.31819 1.347931,34.755384 15.181286,41.093014 13.833355,6.33763 34.820888,-3.85187 36.064898,-24.395414 -2.61211,21.670314 5.47797,35.774974 22.60386,37.714314 17.12589,1.93934 34.96162,-13.4799 30.30358,-32.60132 2.69066,18.4462 19.35024,28.44146 32.70115,23.56489 13.35091,-4.87657 18.03859,-15.1239 11.62444,-33.856784 9.06443,18.395344 27.45504,24.990634 36.33715,16.996744 13.98602,-12.587414 9.177,-44.410904 6.29371,-55.944063 -2.0979,-8.391609 -20.97902,-86.013986 -20.97902,-86.013986 z"
         style="fill:#ffffff;stroke:#000000;stroke-width:5.05995035;stroke-linecap:butt;stroke-linejoin:round;stroke-miterlimit:4;stroke-opacity:1;stroke-dasharray:none;display:inline" />
    </clipPath>
    <clipPath
       clipPathUnits="userSpaceOnUse"
       id="clipPath3820">
      <path
         sodipodi:nodetypes="czczcsczczcsscc"
         inkscape:connector-curvature="0"
         id="path3822"
         d="m 10.627908,-6.0260782 c -18.4428565,4.837806 -24.070591,21.5989402 -20.0536895,34.4914302 4.016899,12.89249 20.1974655,21.916333 30.2570135,14.094744 -9.960467,10.068384 -13.948077,30.174 -1.978132,41.55897 11.969945,11.38496 29.056348,14.78004 41.937786,-4.99524 -9.739536,20.31819 1.347931,34.755384 15.181286,41.093014 13.833355,6.33763 34.820888,-3.85187 36.064898,-24.395414 -2.61211,21.670314 5.47797,35.774974 22.60386,37.714314 17.12589,1.93934 34.96162,-13.4799 30.30358,-32.60132 2.69066,18.4462 19.35024,28.44146 32.70115,23.56489 13.35091,-4.87657 18.03859,-15.1239 11.62444,-33.856784 9.06443,18.395344 27.45504,24.990634 36.33715,16.996744 13.98602,-12.587414 9.177,-44.410904 6.29371,-55.944063 -2.0979,-8.391609 -20.97902,-86.013986 -20.97902,-86.013986 z"
         style="fill:#ffffff;stroke:#000000;stroke-width:5.05995035;stroke-linecap:butt;stroke-linejoin:round;stroke-miterlimit:4;stroke-opacity:1;stroke-dasharray:none;display:inline" />
    </clipPath>
    <clipPath
       clipPathUnits="userSpaceOnUse"
       id="clipPath3824">
      <path
         sodipodi:nodetypes="czczcsczczcsscc"
         inkscape:connector-curvature="0"
         id="path3826"
         d="m 10.627908,-6.0260782 c -18.4428565,4.837806 -24.070591,21.5989402 -20.0536895,34.4914302 4.016899,12.89249 20.1974655,21.916333 30.2570135,14.094744 -9.960467,10.068384 -13.948077,30.174 -1.978132,41.55897 11.969945,11.38496 29.056348,14.78004 41.937786,-4.99524 -9.739536,20.31819 1.347931,34.755384 15.181286,41.093014 13.833355,6.33763 34.820888,-3.85187 36.064898,-24.395414 -2.61211,21.670314 5.47797,35.774974 22.60386,37.714314 17.12589,1.93934 34.96162,-13.4799 30.30358,-32.60132 2.69066,18.4462 19.35024,28.44146 32.70115,23.56489 13.35091,-4.87657 18.03859,-15.1239 11.62444,-33.856784 9.06443,18.395344 27.45504,24.990634 36.33715,16.996744 13.98602,-12.587414 9.177,-44.410904 6.29371,-55.944063 -2.0979,-8.391609 -20.97902,-86.013986 -20.97902,-86.013986 z"
         style="fill:#ffffff;stroke:#000000;stroke-width:5.05995035;stroke-linecap:butt;stroke-linejoin:round;stroke-miterlimit:4;stroke-opacity:1;stroke-dasharray:none;display:inline" />
    </clipPath>
    <clipPath
       clipPathUnits="userSpaceOnUse"
       id="clipPath3846">
      <path
         style="fill:#ffffff;stroke:#000000;stroke-width:5.05995035;stroke-linecap:butt;stroke-linejoin:round;stroke-miterlimit:4;stroke-opacity:1;stroke-dasharray:none;display:inline"
         d="M 44.546881,-9.9696862 C 28.663523,-5.8075482 26.072447,10.116415 27.276242,19.704526 c 1.203795,9.588111 12.131304,24.118563 20.794788,17.38937 -8.578153,8.662191 -2.989808,23.704133 3.559552,30.49151 6.54936,6.78737 25.023909,12.7158 36.117661,-4.29758 -8.387883,17.48047 1.160865,29.9013 13.074427,35.35379 11.91356,5.452494 29.98845,-3.3139 31.05981,-20.98825 -2.2496,18.64375 4.71774,30.778494 19.4669,32.446974 14.74916,1.66849 30.10965,-11.597244 26.09805,-28.048084 2.31725,15.86993 16.66482,24.469214 28.16289,20.273724 11.49807,-4.195494 15.53519,-13.011634 10.0112,-29.128204 7.80647,15.82617 23.64483,21.50033 31.29428,14.6229 12.04504,-10.8294 7.90342,-38.208284 5.42027,-48.130675 -1.80675,-7.219601 -18.06755,-74.00091 -18.06755,-74.00091 z"
         id="path3848"
         inkscape:connector-curvature="0"
         sodipodi:nodetypes="czczcsczczcsscc" />
    </clipPath>
    <clipPath
       clipPathUnits="userSpaceOnUse"
       id="clipPath3850">
      <path
         style="fill:#ffffff;stroke:#000000;stroke-width:5.05995035;stroke-linecap:butt;stroke-linejoin:round;stroke-miterlimit:4;stroke-opacity:1;stroke-dasharray:none;display:inline"
         d="M 44.546881,-9.9696862 C 28.663523,-5.8075482 26.072447,10.116415 27.276242,19.704526 c 1.203795,9.588111 12.131304,24.118563 20.794788,17.38937 -8.578153,8.662191 -2.989808,23.704133 3.559552,30.49151 6.54936,6.78737 25.023909,12.7158 36.117661,-4.29758 -8.387883,17.48047 1.160865,29.9013 13.074427,35.35379 11.91356,5.452494 29.98845,-3.3139 31.05981,-20.98825 -2.2496,18.64375 4.71774,30.778494 19.4669,32.446974 14.74916,1.66849 30.10965,-11.597244 26.09805,-28.048084 2.31725,15.86993 16.66482,24.469214 28.16289,20.273724 11.49807,-4.195494 15.53519,-13.011634 10.0112,-29.128204 7.80647,15.82617 23.64483,21.50033 31.29428,14.6229 12.04504,-10.8294 7.90342,-38.208284 5.42027,-48.130675 -1.80675,-7.219601 -18.06755,-74.00091 -18.06755,-74.00091 z"
         id="path3852"
         inkscape:connector-curvature="0"
         sodipodi:nodetypes="czczcsczczcsscc" />
    </clipPath>
    <clipPath
       clipPathUnits="userSpaceOnUse"
       id="clipPath3854">
      <path
         style="fill:#ffffff;stroke:#000000;stroke-width:5.05995035;stroke-linecap:butt;stroke-linejoin:round;stroke-miterlimit:4;stroke-opacity:1;stroke-dasharray:none;display:inline"
         d="M 44.546881,-9.9696862 C 28.663523,-5.8075482 26.072447,10.116415 27.276242,19.704526 c 1.203795,9.588111 12.131304,24.118563 20.794788,17.38937 -8.578153,8.662191 -2.989808,23.704133 3.559552,30.49151 6.54936,6.78737 25.023909,12.7158 36.117661,-4.29758 -8.387883,17.48047 1.160865,29.9013 13.074427,35.35379 11.91356,5.452494 29.98845,-3.3139 31.05981,-20.98825 -2.2496,18.64375 4.71774,30.778494 19.4669,32.446974 14.74916,1.66849 30.10965,-11.597244 26.09805,-28.048084 2.31725,15.86993 16.66482,24.469214 28.16289,20.273724 11.49807,-4.195494 15.53519,-13.011634 10.0112,-29.128204 7.80647,15.82617 23.64483,21.50033 31.29428,14.6229 12.04504,-10.8294 7.90342,-38.208284 5.42027,-48.130675 -1.80675,-7.219601 -18.06755,-74.00091 -18.06755,-74.00091 z"
         id="path3856"
         inkscape:connector-curvature="0"
         sodipodi:nodetypes="czczcsczczcsscc" />
    </clipPath>
  </defs>
  <sodipodi:namedview
     id="base"
     pagecolor="#ffffff"
     bordercolor="#666666"
     borderopacity="1.0"
     inkscape:pageopacity="0.0"
     inkscape:pageshadow="2"
     inkscape:zoom="0.94045202"
     inkscape:cx="-86.301326"
     inkscape:cy="144.95056"
     inkscape:document-units="mm"
     inkscape:current-layer="layer6"
     showgrid="false"
     units="mm"
     inkscape:window-width="1024"
     inkscape:window-height="696"
     inkscape:window-x="-4"
     inkscape:window-y="-4"
     inkscape:window-maximized="1"
     showguides="true"
     inkscape:guide-bbox="true"
     inkscape:snap-global="false" />
  <metadata
     id="metadata7">
    <rdf:RDF>
      <cc:Work
         rdf:about="">
        <dc:format>image/svg+xml</dc:format>
        <dc:type
           rdf:resource="http://purl.org/dc/dcmitype/StillImage" />
        <dc:title></dc:title>
      </cc:Work>
    </rdf:RDF>
  </metadata>
  <g
     inkscape:groupmode="layer"
     id="layer6"
     inkscape:label="背景">
    <rect
       style="fill:#00a651;fill-opacity:1;fill-rule:nonzero;stroke:none"
       id="rect3019"
       width="201.96851"
       height="201.96851"
       x="0"
       y="1.9223671e-006" />
  </g>
  <g
     inkscape:label="レイヤー 1"
     inkscape:groupmode="layer"
     id="layer1"
     transform="translate(0,-850.39371)" />
  <g
     inkscape:groupmode="layer"
     id="layer4"
     inkscape:label="ミニダム"
     style="display:inline">
    <path
       style="fill:#ffffff;stroke:none;display:inline"
       d="M 44.546881,-9.9696862 C 28.663523,-5.8075482 26.072447,10.116415 27.276242,19.704526 c 1.203795,9.588111 12.131304,24.118563 20.794788,17.38937 -8.578153,8.662191 -2.989808,23.704133 3.559552,30.49151 6.54936,6.78737 25.023909,12.7158 36.117661,-4.29758 -8.387883,17.48047 1.160865,29.9013 13.074427,35.35379 11.91356,5.452494 29.98845,-3.3139 31.05981,-20.98825 -2.2496,18.64375 4.71774,30.778494 19.4669,32.446974 14.74916,1.66849 30.10965,-11.597244 26.09805,-28.048084 2.31725,15.86993 16.66482,24.469214 28.16289,20.273724 11.49807,-4.195494 15.53519,-13.011634 10.0112,-29.128204 7.80647,15.82617 23.64483,21.50033 31.29428,14.6229 12.04504,-10.8294 7.90342,-38.208284 5.42027,-48.130675 -1.80675,-7.219601 -18.06755,-74.00091 -18.06755,-74.00091 z"
       id="path3772-5"
       inkscape:connector-curvature="0"
       sodipodi:nodetypes="czczcsczczcsscc" />
    <path
       style="fill:#f17cb1;fill-opacity:1;stroke:#f17cb1;stroke-width:4.71634007;stroke-linecap:butt;stroke-linejoin:miter;stroke-miterlimit:4;stroke-opacity:1;stroke-dasharray:none;display:inline"
       d="M 194.91513,123.52168 C 195.58315,93.49139 199.92531,23.087041 139.13498,25.089058 78.344634,27.091078 86.694957,95.493408 84.690881,123.52168"
       id="path3792"
       inkscape:connector-curvature="0"
       sodipodi:nodetypes="czc"
       clip-path="url(#clipPath3854)" />
    <path
       style="fill:none;stroke:#f17cb1;stroke-width:5.31496048;stroke-linecap:round;stroke-linejoin:miter;stroke-miterlimit:4;stroke-opacity:1;stroke-dasharray:none"
       d="m 141.36915,4.2101024 0,22.6895526 -20.7088,-15.348816"
       id="path3012"
       inkscape:connector-curvature="0"
       clip-path="url(#clipPath3850)" />
    <path
       style="fill:none;stroke:#f17cb1;stroke-width:5.31496048;stroke-linecap:round;stroke-linejoin:miter;stroke-miterlimit:4;stroke-opacity:1;stroke-dasharray:none"
       d="M 158.73781,10.8835 143.37323,26.899655"
       id="path3014"
       inkscape:connector-curvature="0"
       clip-path="url(#clipPath3846)" />
  </g>
  <g
     style="display:none"
     inkscape:label="ミニダム コピー"
     id="g3876"
     inkscape:groupmode="layer">
    <path
       sodipodi:nodetypes="czczcsczczcsscc"
       inkscape:connector-curvature="0"
       id="path3878"
       d="M 44.546881,-9.9696862 C 28.663523,-5.8075482 26.072447,10.116415 27.276242,19.704526 c 1.203795,9.588111 12.131304,24.118563 20.794788,17.38937 -8.578153,8.662191 -2.989808,23.704133 3.559552,30.49151 6.54936,6.78737 25.023909,12.7158 36.117661,-4.29758 -8.387883,17.48047 1.160865,29.9013 13.074427,35.35379 11.91356,5.452494 29.98845,-3.3139 31.05981,-20.98825 -2.2496,18.64375 4.71774,30.778494 19.4669,32.446974 14.74916,1.66849 30.10965,-11.597244 26.09805,-28.048084 2.31725,15.86993 16.66482,24.469214 28.16289,20.273724 11.49807,-4.195494 15.53519,-13.011634 10.0112,-29.128204 7.80647,15.82617 23.64483,21.50033 31.29428,14.6229 12.04504,-10.8294 7.90342,-38.208284 5.42027,-48.130675 -1.80675,-7.219601 -18.06755,-74.00091 -18.06755,-74.00091 z"
       style="fill:#f17cb1;stroke:none;display:inline" />
    <path
       clip-path="url(#clipPath3854)"
       sodipodi:nodetypes="czc"
       inkscape:connector-curvature="0"
       id="path3880"
       d="M 194.91513,123.52168 C 195.58315,93.49139 199.92531,23.087041 139.13498,25.089058 78.344634,27.091078 86.694957,95.493408 84.690881,123.52168"
       style="fill:#777777;fill-opacity:1;stroke:#777777;stroke-width:4.71634007;stroke-linecap:butt;stroke-linejoin:miter;stroke-miterlimit:4;stroke-opacity:1;stroke-dasharray:none;display:inline" />
    <path
       clip-path="url(#clipPath3850)"
       inkscape:connector-curvature="0"
       id="path3882"
       d="m 141.36915,4.2101024 0,22.6895526 -20.7088,-15.348816"
       style="fill:none;stroke:#777777;stroke-width:5.31496048;stroke-linecap:round;stroke-linejoin:miter;stroke-miterlimit:4;stroke-opacity:1;stroke-dasharray:none" />
    <path
       clip-path="url(#clipPath3846)"
       inkscape:connector-curvature="0"
       id="path3884"
       d="M 158.73781,10.8835 143.37323,26.899655"
       style="fill:none;stroke:#777777;stroke-width:5.31496048;stroke-linecap:round;stroke-linejoin:miter;stroke-miterlimit:4;stroke-opacity:1;stroke-dasharray:none" />
  </g>
  <g
     inkscape:groupmode="layer"
     id="layer3"
     inkscape:label="吹き出し"
     style="display:inline"
     sodipodi:insensitive="true">
    <path
       style="fill:none;stroke:#000000;stroke-width:5.05995035;stroke-linecap:butt;stroke-linejoin:round;stroke-miterlimit:4;stroke-opacity:1;stroke-dasharray:none"
       d="M 44.546881,-9.969681 C 28.663523,-5.8075432 26.072447,10.11642 27.276242,19.704531 c 1.203795,9.588111 12.131304,24.118563 20.794788,17.38937 -8.578153,8.662191 -2.989808,23.704133 3.559552,30.491507 6.54936,6.787374 25.023909,12.715805 36.117661,-4.29758 -8.387883,17.480469 1.160865,29.9013 13.074427,35.35379 11.91356,5.452492 29.98845,-3.313902 31.05981,-20.988245 -2.2496,18.643744 4.71774,30.778487 19.4669,32.446967 14.74916,1.66849 30.10965,-11.597236 26.09805,-28.048078 2.31725,15.869926 16.66482,24.469208 28.16289,20.273718 11.49807,-4.195488 15.53519,-13.011632 10.0112,-29.128204 7.80647,15.826174 23.64483,21.500338 31.29428,14.622908 12.04504,-10.829405 7.90342,-38.208287 5.42027,-48.130678 -1.80675,-7.219601 -18.06755,-74.00091 -18.06755,-74.00091 z"
       id="path3772"
       inkscape:connector-curvature="0"
       sodipodi:nodetypes="czczcsczczcsscc" />
    <path
       sodipodi:type="arc"
       style="fill:#ffffff;fill-opacity:1;fill-rule:nonzero;stroke:#000000;stroke-width:6.17460203;stroke-linecap:round;stroke-linejoin:round;stroke-miterlimit:4;stroke-opacity:1;stroke-dasharray:none;stroke-dashoffset:0"
       id="path3784"
       sodipodi:cx="159.06479"
       sodipodi:cy="113.22112"
       sodipodi:rx="16.161663"
       sodipodi:ry="16.161663"
       d="m 175.22645,113.22112 a 16.161663,16.161663 0 1 1 -32.32332,0 16.161663,16.161663 0 1 1 32.32332,0 z"
       transform="matrix(0.86122004,0,0,0.86033579,40.86816,14.586188)" />
    <path
       transform="matrix(0.57575814,0,0,0.57516698,71.55342,65.63647)"
       d="m 175.22645,113.22112 a 16.161663,16.161663 0 1 1 -32.32332,0 16.161663,16.161663 0 1 1 32.32332,0 z"
       sodipodi:ry="16.161663"
       sodipodi:rx="16.161663"
       sodipodi:cy="113.22112"
       sodipodi:cx="159.06479"
       id="path3786"
       style="fill:#ffffff;fill-opacity:1;fill-rule:nonzero;stroke:#000000;stroke-width:9.23598099;stroke-linecap:round;stroke-linejoin:round;stroke-miterlimit:4;stroke-opacity:1;stroke-dasharray:none;stroke-dashoffset:0"
       sodipodi:type="arc" />
  </g>
  <g
     inkscape:groupmode="layer"
     id="layer2"
     inkscape:label="イケダム"
     style="display:inline">
    <path
       style="fill:#000000;stroke:none"
       d="m 23.068351,107.44012 41.373604,-41.360674 2.06663,17.910903 23.567601,-14.073671 3.649602,18.796903 19.617922,-7.996362 1.92451,47.822361"
       id="path3769"
       inkscape:connector-curvature="0"
       sodipodi:nodetypes="ccccccc" />
    <path
       style="fill:#fee5cc;stroke:#000000;stroke-width:5.31496048;stroke-linecap:butt;stroke-linejoin:miter;stroke-miterlimit:4;stroke-opacity:1;stroke-dasharray:none"
       d="m 168.48529,226.87165 c 0,-83.88376 -23.40254,-125.96672 -98.143129,-126.84862 -74.7405943,-0.881904 -98.143132,43.98782 -98.143132,126.84862"
       id="path2983"
       inkscape:connector-curvature="0"
       sodipodi:nodetypes="czc" />
    <path
       style="fill:none;stroke:#000000;stroke-width:5.31496048;stroke-linecap:round;stroke-linejoin:miter;stroke-miterlimit:4;stroke-opacity:1;stroke-dasharray:none"
       d="m -6.7130624,127.39507 c 37.2058554,1.14709 57.8490744,0.54785 75.2586314,0.54785 15.334865,0 23.089999,-6.68567 23.089999,-12.82352 10e-7,-10.43232 -9.025516,-16.543073 -22.315732,-16.543073 -13.290216,0 -25.564472,4.920793 -26.332374,17.215023 -0.511163,8.18378 12.056161,13.08677 25.857539,12.57529 18.417586,-0.68257 62.779009,1.28625 75.031849,-0.7597"
       id="path3753"
       inkscape:connector-curvature="0"
       sodipodi:nodetypes="csssssc" />
    <path
       sodipodi:type="arc"
       style="fill:#000000;fill-opacity:1;fill-rule:nonzero;stroke:none"
       id="path3761"
       sodipodi:cx="-6.9078946"
       sodipodi:cy="141.77113"
       sodipodi:rx="5.5921054"
       sodipodi:ry="5.5921054"
       d="m -1.3157892,141.77113 a 5.5921054,5.5921054 0 1 1 -11.1842108,0 5.5921054,5.5921054 0 1 1 11.1842108,0 z"
       transform="matrix(0.87366243,0,0,0.87421652,19.418508,22.187942)" />
    <path
       d="m -1.3157892,141.77113 a 5.5921054,5.5921054 0 1 1 -11.1842108,0 5.5921054,5.5921054 0 1 1 11.1842108,0 z"
       sodipodi:ry="5.5921054"
       sodipodi:rx="5.5921054"
       sodipodi:cy="141.77113"
       sodipodi:cx="-6.9078946"
       id="path3763"
       style="fill:#000000;fill-opacity:1;fill-rule:nonzero;stroke:none"
       sodipodi:type="arc"
       transform="matrix(0.87366243,0,0,0.87421652,135.34971,22.187942)" />
    <path
       style="fill:#f17cb1;stroke:#000000;stroke-width:5.31496048;stroke-linecap:round;stroke-linejoin:round;stroke-miterlimit:4;stroke-opacity:1;stroke-dasharray:none"
       d="M 3.0228811,189.49056 C 2.935384,183.30498 42.46771,169.14897 53.311097,169.14897 c 10.843387,0 11.209016,4.63973 16.269263,4.63973 5.571409,0 7.8436,-4.95394 15.925138,-4.85159 6.929492,0.0877 50.420602,7.2335 51.866392,18.08377 0.9554,7.17005 -41.767403,16.4252 -67.791531,17.14855 C 43.55623,204.89278 3.1240638,196.64388 3.0228811,189.49056 z"
       id="path3765"
       inkscape:connector-curvature="0"
       sodipodi:nodetypes="ssssszs" />
    <path
       style="fill:none;stroke:#000000;stroke-width:5.31496048;stroke-linecap:round;stroke-linejoin:miter;stroke-miterlimit:4;stroke-opacity:1;stroke-dasharray:none"
       d="m 7.4116095,187.53237 c 26.0241275,0 119.2772505,0 124.3375005,0"
       id="path3767"
       inkscape:connector-curvature="0" />
  </g>
  <g
     inkscape:groupmode="layer"
     id="layer5"
     inkscape:label="マスク"
     style="display:inline"
     sodipodi:insensitive="true">
    <path
       style="fill:#ffffff;fill-opacity:1;fill-rule:nonzero;stroke:none"
       d="m -98.5,-83.75 0,345.125 411.28125,0 0,-345.125 -411.28125,0 z M 0,0 l 201.96875,0 0,201.96875 L 0,201.96875 0,0 z"
       id="rect3889"
       inkscape:connector-curvature="0" />
  </g>
</svg>
